<svg id="Layer_1" data-name="Layer 1" xmlns="http://www.w3.org/2000/svg" viewBox="0 0 242.69 197.69"><defs><style>.cls-1{fill:#010002;}</style></defs><title>old-typical-phone</title><path class="cls-1" d="M40.37,130.66A14.53,14.53,0,0,0,56.15,119a30.37,30.37,0,0,0,.45-5.45H6.65C6.65,135,22.89,129.19,40.37,130.66Zm89-65c40.9.4,66.52-2.14,70,43.18h49.86c0-70.21-61.24-79.68-121.13-79.68S6.9,38.62,6.9,108.83H56.38C60.21,62.64,88.78,65.26,129.33,65.65Zm70.3,47.91h-.47a26.34,26.34,0,0,0,.53,5.59c2.37,11,12.46,10.33,24.56,10.33,13.86,0,25.1.91,25.1-15.92Zm-23.15-13.19V93.31c0-3.16-3.64-3.36-8.14-3.36H161c-4.49,0-8.13.2-8.13,3.36v10.8H101V93.31c0-3.16-3.64-3.36-8.13-3.36H85.47c-4.49,0-8.13.2-8.13,3.36v13.23c-11.82,12.29-50.51,64.62-51.92,71l0,42.28a7.08,7.08,0,0,0,7.08,7.08h188.8a7.08,7.08,0,0,0,7.08-7.08V177.28c-1.39-6.15-40.09-58.46-51.92-70.75Zm-79.3,84.94a6.89,6.89,0,1,1,6.88-6.89A6.88,6.88,0,0,1,97.18,185.31Zm0-23.61a6.88,6.88,0,1,1,6.88-6.88A6.87,6.87,0,0,1,97.18,161.7Zm0-23.59a6.89,6.89,0,1,1,6.88-6.89A6.88,6.88,0,0,1,97.18,138.11Zm28.32,47.2a6.89,6.89,0,1,1,6.88-6.89A6.88,6.88,0,0,1,125.5,185.31Zm0-23.61a6.88,6.88,0,1,1,6.88-6.88A6.87,6.87,0,0,1,125.5,161.7Zm0-23.59a6.89,6.89,0,1,1,6.88-6.89A6.88,6.88,0,0,1,125.5,138.11Zm28.32,47.2a6.89,6.89,0,1,1,6.89-6.89A6.88,6.88,0,0,1,153.82,185.31Zm0-23.61a6.88,6.88,0,1,1,6.89-6.88A6.87,6.87,0,0,1,153.82,161.7Zm0-23.59a6.89,6.89,0,1,1,6.89-6.89A6.88,6.88,0,0,1,153.82,138.11Z" transform="translate(-6.65 -29.15)"/></svg>