<svg id="Layer_1" data-name="Layer 1" xmlns="http://www.w3.org/2000/svg" viewBox="0 0 182.37 252"><title>scooter-front-view</title><path fill="currentColor" d="M127.45,165a22.17,22.17,0,0,0-22.11,22.1v44.76a22.11,22.11,0,1,0,44.21,0V187.13A22.16,22.16,0,0,0,127.45,165Zm80.13-135.4H165a39.37,39.37,0,0,0-75.16,0h-42a11.06,11.06,0,0,0,0,22.11H90.42a38.14,38.14,0,0,0,17.13,22.1c-29.84,8.84-51.94,36.48-51.94,69.08v58a18.39,18.39,0,0,0,18.23,18.23H88.76v-31.5a39.24,39.24,0,0,1,78.48,0v31.5h14.92A18.39,18.39,0,0,0,200.39,201V143.47c0-32.6-22.1-60.79-51.94-69.08a38.14,38.14,0,0,0,17.13-22.1h42.55a11.08,11.08,0,0,0,11.05-11C218.63,34.61,213.66,29.63,207.58,29.63ZM127.45,63.34a22.11,22.11,0,1,1,22.1-22.1C150.11,53.39,140.16,63.34,127.45,63.34Z" transform="translate(-36.82 -2)"/></svg>
